HIERARCHY
ROOT Hips
{
	OFFSET 0.000000 71.427986 0.000000
	CHANNELS 6 Xposition Yposition Zposition Xrotation Yrotation Zrotation
	JOINT Pelvis
	{
		OFFSET 0.000000 0.000000 0.000000
		CHANNELS 3 Xrotation Yrotation Zrotation
		JOINT LeftUpLeg
		{
			OFFSET 6.797100 -2.508499 -1.318700
			CHANNELS 3 Xrotation Yrotation Zrotation
			JOINT LeftLeg
			{
				OFFSET 0.069008 -29.241863 0.690200
				CHANNELS 3 Xrotation Yrotation Zrotation
				JOINT LeftFoot
				{
					OFFSET -0.069008 -29.568123 -0.266800
					CHANNELS 3 Xrotation Yrotation Zrotation
					JOINT LeftToeBase
					{
						OFFSET 3.145500 -8.631000 16.059900
						CHANNELS 3 Xrotation Yrotation Zrotation
						End Site
						{
							OFFSET 0.000000 18.501587 0.000000
						}
					}
				}
			}
			JOINT Left_ShortSleeve
			{
				OFFSET 0.265923 -10.480953 1.153800
				CHANNELS 3 Xrotation Yrotation Zrotation
				End Site
				{
					OFFSET 1.725763 19.823879 0.000000
				}
			}
		}
		JOINT RightUpLeg
		{
			OFFSET -6.797100 -2.508499 -1.318700
			CHANNELS 3 Xrotation Yrotation Zrotation
			JOINT RightLeg
			{
				OFFSET -0.082453 -29.241932 0.688000
				CHANNELS 3 Xrotation Yrotation Zrotation
				JOINT RightFoot
				{
					OFFSET 0.082453 -29.568058 -0.264600
					CHANNELS 3 Xrotation Yrotation Zrotation
					JOINT RightToeBase
					{
						OFFSET -3.115300 -8.682800 16.113400
						CHANNELS 3 Xrotation Yrotation Zrotation
						End Site
						{
							OFFSET 0.000000 18.567114 0.000000
						}
					}
				}
			}
			JOINT Right_ShortSleeve
			{
				OFFSET -0.265923 -10.480953 1.153800
				CHANNELS 3 Xrotation Yrotation Zrotation
				End Site
				{
					OFFSET -1.725766 19.823910 0.000000
				}
			}
		}
	}
	JOINT Spine
	{
		OFFSET 0.000000 13.368103 0.470500
		CHANNELS 3 Xrotation Yrotation Zrotation
		JOINT Spine1
		{
			OFFSET 0.147000 13.837402 0.538800
			CHANNELS 3 Xrotation Yrotation Zrotation
			JOINT Spine2
			{
				OFFSET 0.168000 16.242897 -1.435500
				CHANNELS 3 Xrotation Yrotation Zrotation
				JOINT Neck
				{
					OFFSET 0.217200 18.631500 -1.679100
					CHANNELS 3 Xrotation Yrotation Zrotation
					JOINT Head
					{
						OFFSET 0.000000 6.599396 1.385900
						CHANNELS 3 Xrotation Yrotation Zrotation
						JOINT Hat
						{
							OFFSET -0.532200 27.220596 -10.096100
							CHANNELS 3 Xrotation Yrotation Zrotation
							End Site
							{
								OFFSET 0.000000 22.029861 0.000000
							}
						}
						JOINT HairD
						{
							OFFSET -10.777400 17.437393 -1.325900
							CHANNELS 3 Xrotation Yrotation Zrotation
							JOINT HairD1
							{
								OFFSET -3.290299 -11.051193 1.062200
								CHANNELS 3 Xrotation Yrotation Zrotation
								End Site
								{
									OFFSET 0.000000 11.579437 0.000000
								}
							}
						}
						JOINT HairB
						{
							OFFSET -10.777400 17.437393 1.467900
							CHANNELS 3 Xrotation Yrotation Zrotation
							JOINT HairB1
							{
								OFFSET -1.561200 -12.956299 3.590200
								CHANNELS 3 Xrotation Yrotation Zrotation
								End Site
								{
									OFFSET 0.000000 13.534866 0.000000
								}
							}
						}
						JOINT HairA
						{
							OFFSET 9.713100 17.437393 1.467900
							CHANNELS 3 Xrotation Yrotation Zrotation
							JOINT HairA1
							{
								OFFSET 1.561200 -12.956299 3.590200
								CHANNELS 3 Xrotation Yrotation Zrotation
								End Site
								{
									OFFSET 0.000000 13.534866 0.000000
								}
							}
						}
						JOINT HairC
						{
							OFFSET 9.713100 17.437393 -1.325900
							CHANNELS 3 Xrotation Yrotation Zrotation
							JOINT HairC1
							{
								OFFSET 3.290300 -11.051193 1.062200
								CHANNELS 3 Xrotation Yrotation Zrotation
								End Site
								{
									OFFSET 0.000000 11.579437 0.000000
								}
							}
						}
					}
				}
				JOINT LeftShoulder
				{
					OFFSET 5.101800 15.108002 -2.763700
					CHANNELS 3 Xrotation Yrotation Zrotation
					JOINT LeftArm
					{
						OFFSET 9.825497 2.506317 -1.597400
						CHANNELS 3 Xrotation Yrotation Zrotation
						JOINT LeftForeArm
						{
							OFFSET 21.966244 0.000000 0.000000
							CHANNELS 3 Xrotation Yrotation Zrotation
							JOINT LeftHand
							{
								OFFSET 33.879036 0.000000 0.000000
								CHANNELS 3 Xrotation Yrotation Zrotation
								JOINT LeftHandThumb1
								{
									OFFSET 6.715286 -2.359680 3.363841
									CHANNELS 3 Xrotation Yrotation Zrotation
									JOINT LeftHandThumb2
									{
										OFFSET 2.507072 -1.447464 1.447461
										CHANNELS 3 Xrotation Yrotation Zrotation
										JOINT LeftHandThumb3
										{
											OFFSET 2.898338 -1.673355 1.673357
											CHANNELS 3 Xrotation Yrotation Zrotation
											End Site
											{
												OFFSET -0.295959 3.727692 -0.131651
											}
										}
									}
								}
								JOINT LeftHandIndex1
								{
									OFFSET 14.190811 -0.254547 3.840278
									CHANNELS 3 Xrotation Yrotation Zrotation
									JOINT LeftHandIndex2
									{
										OFFSET 3.551727 0.000000 -0.000000
										CHANNELS 3 Xrotation Yrotation Zrotation
										JOINT LeftHandIndex3
										{
											OFFSET 2.894196 0.000000 0.000000
											CHANNELS 3 Xrotation Yrotation Zrotation
											End Site
											{
												OFFSET -1.000603 2.690872 0.366626
											}
										}
									}
								}
								JOINT LeftHandMiddle1
								{
									OFFSET 13.776489 0.000000 0.000000
									CHANNELS 3 Xrotation Yrotation Zrotation
									JOINT LeftHandMiddle2
									{
										OFFSET 3.438232 0.000000 0.000000
										CHANNELS 3 Xrotation Yrotation Zrotation
										JOINT LeftHandMiddle3
										{
											OFFSET 3.691551 0.000000 0.000000
											CHANNELS 3 Xrotation Yrotation Zrotation
											End Site
											{
												OFFSET -1.082298 3.499527 0.457670
											}
										}
									}
								}
								JOINT LeftHandRing1
								{
									OFFSET 13.966164 -0.268127 -3.067488
									CHANNELS 3 Xrotation Yrotation Zrotation
									JOINT LeftHandRing2
									{
										OFFSET 3.162567 0.000000 0.000000
										CHANNELS 3 Xrotation Yrotation Zrotation
										JOINT LeftHandRing3
										{
											OFFSET 3.324348 0.000000 0.000000
											CHANNELS 3 Xrotation Yrotation Zrotation
											End Site
											{
												OFFSET -0.861900 3.184998 0.405154
											}
										}
									}
								}
								JOINT LeftHandPinky1
								{
									OFFSET 13.131393 -0.168503 -5.746925
									CHANNELS 3 Xrotation Yrotation Zrotation
									JOINT LeftHandPinky2
									{
										OFFSET 2.849182 0.000000 0.000000
										CHANNELS 3 Xrotation Yrotation Zrotation
										JOINT LeftHandPinky3
										{
											OFFSET 2.805038 0.000000 0.000000
											CHANNELS 3 Xrotation Yrotation Zrotation
											End Site
											{
												OFFSET -0.882500 2.642609 0.325652
											}
										}
									}
								}
							}
							JOINT Left_Sleeve
							{
								OFFSET 6.592125 -0.646545 0.805568
								CHANNELS 3 Xrotation Yrotation Zrotation
								End Site
								{
									OFFSET -0.000179 20.275787 -0.000000
								}
							}
						}
					}
				}
				JOINT RightShoulder
				{
					OFFSET -5.731700 15.108002 -2.763700
					CHANNELS 3 Xrotation Yrotation Zrotation
					JOINT RightArm
					{
						OFFSET -9.825497 2.506317 -1.597400
						CHANNELS 3 Xrotation Yrotation Zrotation
						JOINT RightForeArm
						{
							OFFSET -21.966242 0.000000 0.000000
							CHANNELS 3 Xrotation Yrotation Zrotation
							JOINT RightHand
							{
								OFFSET -33.879032 0.000000 0.000000
								CHANNELS 3 Xrotation Yrotation Zrotation
								JOINT RightHandThumb1
								{
									OFFSET -6.715286 -2.359680 3.363841
									CHANNELS 3 Xrotation Yrotation Zrotation
									JOINT RightHandThumb2
									{
										OFFSET -2.507072 -1.447464 1.447461
										CHANNELS 3 Xrotation Yrotation Zrotation
										JOINT RightHandThumb3
										{
											OFFSET -2.898338 -1.673355 1.673357
											CHANNELS 3 Xrotation Yrotation Zrotation
											End Site
											{
												OFFSET 0.295959 3.727692 -0.131651
											}
										}
									}
								}
								JOINT RightHandIndex1
								{
									OFFSET -14.190811 -0.254547 3.840278
									CHANNELS 3 Xrotation Yrotation Zrotation
									JOINT RightHandIndex2
									{
										OFFSET -3.551727 0.000000 -0.000000
										CHANNELS 3 Xrotation Yrotation Zrotation
										JOINT RightHandIndex3
										{
											OFFSET -2.894196 0.000000 0.000000
											CHANNELS 3 Xrotation Yrotation Zrotation
											End Site
											{
												OFFSET 1.000603 2.690872 0.366626
											}
										}
									}
								}
								JOINT RightHandMiddle1
								{
									OFFSET -13.776489 0.000000 0.000000
									CHANNELS 3 Xrotation Yrotation Zrotation
									JOINT RightHandMiddle2
									{
										OFFSET -3.438232 0.000000 0.000000
										CHANNELS 3 Xrotation Yrotation Zrotation
										JOINT RightHandMiddle3
										{
											OFFSET -3.691551 0.000000 0.000000
											CHANNELS 3 Xrotation Yrotation Zrotation
											End Site
											{
												OFFSET 1.082298 3.499527 0.457670
											}
										}
									}
								}
								JOINT RightHandRing1
								{
									OFFSET -13.966164 -0.268127 -3.067488
									CHANNELS 3 Xrotation Yrotation Zrotation
									JOINT RightHandRing2
									{
										OFFSET -3.162567 0.000000 0.000000
										CHANNELS 3 Xrotation Yrotation Zrotation
										JOINT RightHandRing3
										{
											OFFSET -3.324348 0.000000 0.000000
											CHANNELS 3 Xrotation Yrotation Zrotation
											End Site
											{
												OFFSET 0.861900 3.184998 0.405154
											}
										}
									}
								}
								JOINT RightHandPinky1
								{
									OFFSET -13.131393 -0.168503 -5.746925
									CHANNELS 3 Xrotation Yrotation Zrotation
									JOINT RightHandPinky2
									{
										OFFSET -2.849182 0.000000 0.000000
										CHANNELS 3 Xrotation Yrotation Zrotation
										JOINT RightHandPinky3
										{
											OFFSET -2.805038 0.000000 0.000000
											CHANNELS 3 Xrotation Yrotation Zrotation
											End Site
											{
												OFFSET 0.882500 2.642609 0.325652
											}
										}
									}
								}
							}
							JOINT Right_Sleeve
							{
								OFFSET -6.592125 -0.646545 0.805568
								CHANNELS 3 Xrotation Yrotation Zrotation
								End Site
								{
									OFFSET 0.000179 20.275787 -0.000000
								}
							}
						}
					}
				}
				JOINT Bind_Right_JacketString
				{
					OFFSET -3.534800 11.969597 7.200700
					CHANNELS 3 Xrotation Yrotation Zrotation
					JOINT Bind_Right_JacketString1
					{
						OFFSET -0.319900 -6.102600 2.794100
						CHANNELS 3 Xrotation Yrotation Zrotation
						End Site
						{
							OFFSET 0.000000 6.719452 0.000000
						}
					}
				}
				JOINT Bind_Left_JacketString
				{
					OFFSET 2.904800 11.969597 7.200700
					CHANNELS 3 Xrotation Yrotation Zrotation
					JOINT Bind_Left_JacketString1
					{
						OFFSET 0.364800 -5.904503 3.186800
						CHANNELS 3 Xrotation Yrotation Zrotation
						End Site
						{
							OFFSET 0.000000 6.719513 0.000000
						}
					}
				}
				JOINT HairE
				{
					OFFSET 5.915200 17.612701 -11.592200
					CHANNELS 3 Xrotation Yrotation Zrotation
					JOINT HairE1
					{
						OFFSET 0.289200 -7.171898 -1.284500
						CHANNELS 3 Xrotation Yrotation Zrotation
						End Site
						{
							OFFSET 0.000000 7.291756 0.000000
						}
					}
				}
				JOINT HairF
				{
					OFFSET -0.864800 17.612701 -11.592200
					CHANNELS 3 Xrotation Yrotation Zrotation
					JOINT HairF1
					{
						OFFSET 0.000000 -14.087097 -2.127501
						CHANNELS 3 Xrotation Yrotation Zrotation
						End Site
						{
							OFFSET 0.000000 14.246841 0.000000
						}
					}
				}
				JOINT HairG
				{
					OFFSET -8.087700 17.612701 -11.592200
					CHANNELS 3 Xrotation Yrotation Zrotation
					JOINT HairG1
					{
						OFFSET -0.293600 -6.081398 -0.910100
						CHANNELS 3 Xrotation Yrotation Zrotation
						End Site
						{
							OFFSET 0.000000 6.156120 0.000000
						}
					}
				}
			}
		}
	}
	JOINT Pouch
	{
		OFFSET 0.000000 4.394501 10.847300
		CHANNELS 3 Xrotation Yrotation Zrotation
		End Site
		{
			OFFSET 0.000000 21.880577 0.000000
		}
	}
	JOINT Bag
	{
		OFFSET -13.229000 4.813004 -0.593300
		CHANNELS 3 Xrotation Yrotation Zrotation
		End Site
		{
			OFFSET 0.000000 21.880577 0.000000
		}
	}
	JOINT OccupyGuyFacialAnim_Joint
	{
		OFFSET 1.000000 -70.206398 -1.655000
		CHANNELS 3 Xrotation Yrotation Zrotation
		End Site
		{
			OFFSET 0.000000 21.880577 0.000000
		}
	}
}
MOTION
Frames: 4
Frame Time: 0.033333
-1.336312 67.070290 12.137294 -9.006378 5.263351 3.996795 0.000001 -0.000000 -0.000000 -19.677015 -10.079416 -17.642524 44.054150 10.127084 1.173503 -19.644141 -29.312764 -3.458478 -0.000000 0.000004 0.000000 -0.000001 -0.000000 0.000000 8.781511 -3.373433 -23.133781 51.172344 17.580050 1.503434 -6.711261 18.652862 -2.817990 -0.000002 0.000002 -0.000000 0.000000 -0.000000 -0.000003 -7.616750 37.815489 16.490870 0.264007 12.907708 2.677571 0.395411 12.525656 3.961549 3.195107 -8.303085 1.294618 -4.742850 -38.346618 -8.687463 0.000000 -0.000001 0.000000 0.000000 -0.000001 0.000000 0.000000 -0.000001 0.000000 0.000000 -0.000001 0.000000 0.000000 -0.000002 0.000001 0.000000 -0.000001 0.000000 0.000000 -0.000002 0.000001 0.000000 -0.000001 0.000000 0.000000 -0.000001 0.000000 1.513981 -19.446647 8.359894 -57.344711 -28.594039 -50.956811 0.000027 -62.250119 0.000023 -23.656382 -60.770447 38.531447 -9.235362 -2.147977 9.232391 8.361286 10.198112 10.706111 0.000000 -0.000000 0.000002 7.111133 8.625895 -76.996080 7.364100 5.652682 -105.011522 -0.000000 -0.000001 -0.000004 3.373457 8.413136 -94.393412 6.012487 5.848838 -91.583623 -0.000002 -0.000000 0.000002 4.133565 8.907537 -105.431722 3.631146 5.414954 -67.668077 0.000003 -0.000001 -0.000001 8.689876 7.507945 -118.302742 2.611858 4.875242 -56.338942 -0.000000 -0.000003 0.000001 -0.000001 -0.000001 0.000000 -6.920938 45.983248 1.196674 -43.957943 35.431914 22.102214 -0.000057 77.631896 0.000056 4.305394 6.872427 -17.091039 4.421777 -7.563040 -15.368416 -6.711069 -17.341480 -6.658237 0.000001 -0.000001 -0.000001 4.590321 -12.053717 27.506118 4.617861 -4.657002 89.516015 -0.000002 -0.000002 -0.000002 6.643553 -8.911275 58.518213 4.914941 -4.650036 93.176491 0.000002 -0.000003 0.000000 0.610992 -5.168788 56.810150 5.651364 -4.550077 102.339265 -0.000000 -0.000001 0.000002 2.759735 -6.582558 55.834112 4.789084 -4.655315 91.625007 -0.000000 0.000005 0.000003 0.000000 -0.000003 -0.000003 -0.000000 0.000001 0.000000 -0.000000 0.000001 -0.000000 -0.000000 0.000001 -0.000000 -0.000000 0.000001 -0.000000 -0.000000 0.000001 0.000000 -0.000000 0.000001 0.000000 -0.000000 0.000001 -0.000000 -0.000000 0.000001 -0.000000 -0.000000 0.000001 0.000000 -0.000000 0.000001 0.000000 0.000001 -0.000000 -0.000000 0.000001 -0.000000 -0.000000 0.000001 -0.000000 -0.000000 
-1.448648 67.117569 12.071745 -8.695617 4.225891 3.978841 0.000001 -0.000000 -0.000000 -19.944702 -9.822831 -17.506128 43.817071 10.407521 1.242936 -19.304777 -29.176936 -4.008985 -0.000000 0.000000 -0.000000 0.000000 0.000000 -0.000001 7.930195 -2.649198 -23.349560 51.669722 17.541662 1.351161 -6.477580 18.821339 -2.871168 0.000002 -0.000002 -0.000001 0.000000 -0.000000 -0.000001 -7.172337 37.484939 16.229081 0.348423 12.626290 2.573739 0.508103 12.266950 3.783894 2.919988 -8.099957 1.309790 -5.211532 -37.128697 -9.090177 -0.000000 0.000001 0.000001 -0.000000 0.000001 0.000001 -0.000000 0.000001 0.000001 -0.000000 0.000001 0.000000 -0.000000 0.000001 0.000000 -0.000000 0.000001 0.000000 -0.000000 0.000001 0.000000 -0.000000 0.000001 0.000001 -0.000000 0.000001 0.000001 1.422171 -19.393875 8.162763 -56.239901 -28.492520 -51.633010 0.000028 -62.412766 0.000025 -23.963632 -59.592840 37.862942 -9.235363 -2.147959 9.232423 8.361267 10.198112 10.706141 -0.000001 -0.000000 -0.000001 7.111146 8.625905 -76.996080 7.364099 5.652691 -105.011522 0.000000 0.000001 -0.000002 3.373436 8.413139 -94.393392 6.012488 5.848834 -91.583623 0.000002 0.000001 0.000001 4.133572 8.907541 -105.431708 3.631135 5.414937 -67.668030 -0.000003 -0.000003 -0.000001 8.689883 7.507966 -118.302742 2.611863 4.875220 -56.338931 -0.000001 -0.000002 -0.000001 -0.000000 0.000001 -0.000003 -7.021094 45.714763 1.279437 -43.352242 34.365865 23.108342 0.000140 77.934043 -0.000143 3.432431 6.662320 -17.378868 4.421780 -7.563042 -15.368419 -6.711067 -17.341475 -6.658234 -0.000001 -0.000001 0.000001 4.590324 -12.053722 27.506119 4.617856 -4.656999 89.516015 0.000003 0.000002 0.000002 6.643553 -8.911277 58.518206 4.914945 -4.650030 93.176491 -0.000000 -0.000001 0.000001 0.610992 -5.168787 56.810146 5.651361 -4.550074 102.339265 -0.000000 -0.000001 -0.000003 2.759738 -6.582561 55.834105 4.789086 -4.655316 91.625014 0.000004 0.000003 -0.000001 0.000000 -0.000002 0.000001 0.000000 -0.000001 -0.000000 0.000000 -0.000001 -0.000000 0.000000 -0.000001 -0.000001 0.000000 -0.000001 -0.000001 0.000000 -0.000001 -0.000000 0.000000 -0.000001 0.000000 0.000000 -0.000001 -0.000001 0.000000 -0.000001 -0.000001 0.000000 -0.000001 -0.000000 0.000000 -0.000001 0.000000 0.000001 -0.000000 -0.000000 0.000001 -0.000000 -0.000000 0.000001 -0.000000 -0.000000 
-1.550561 67.182701 12.017293 -8.390358 3.178527 4.008294 0.000001 -0.000000 0.000000 -20.143300 -9.576693 -17.241375 43.501676 10.655535 1.031333 -18.852203 -29.097067 -4.381518 -0.000000 -0.000003 -0.000000 0.000003 -0.000001 -0.000002 7.083935 -2.023427 -23.665854 52.070886 17.522762 1.237620 -6.151805 19.112672 -2.982648 -0.000001 -0.000001 -0.000002 -0.000000 -0.000000 0.000000 -6.736887 37.202555 15.942951 0.425196 12.379200 2.464879 0.611420 12.041866 3.607387 2.644010 -7.892208 1.277331 -5.608921 -35.960482 -9.431340 -0.000000 -0.000001 -0.000000 -0.000000 -0.000001 -0.000000 -0.000000 -0.000001 0.000000 -0.000000 -0.000001 0.000000 -0.000000 -0.000001 -0.000000 -0.000000 -0.000001 0.000000 -0.000000 -0.000001 -0.000000 -0.000000 -0.000001 -0.000000 -0.000000 -0.000001 -0.000000 1.283026 -19.379900 7.806862 -54.937568 -28.440066 -52.330106 0.000067 -62.757431 0.000065 -23.842635 -58.170399 37.631286 -9.235374 -2.147960 9.232415 8.361274 10.198111 10.706123 0.000002 -0.000000 -0.000001 7.111128 8.625901 -76.996094 7.364083 5.652704 -105.011515 -0.000004 -0.000000 -0.000002 3.373438 8.413144 -94.393406 6.012485 5.848840 -91.583623 -0.000000 -0.000000 0.000002 4.133577 8.907543 -105.431708 3.631133 5.414945 -67.668050 0.000001 -0.000001 -0.000002 8.689874 7.507973 -118.302742 2.611860 4.875231 -56.338935 0.000002 0.000001 0.000003 -0.000000 0.000002 -0.000002 -7.203906 45.403338 1.497048 -42.873408 33.063344 24.511476 0.000232 78.397424 -0.000245 2.682018 6.518283 -17.277824 4.421775 -7.563040 -15.368416 -6.711069 -17.341475 -6.658236 -0.000005 0.000000 0.000001 4.590324 -12.053717 27.506118 4.617865 -4.656994 89.516022 -0.000003 0.000000 0.000005 6.643553 -8.911272 58.518206 4.914943 -4.650029 93.176498 0.000001 0.000001 0.000003 0.610995 -5.168789 56.810146 5.651365 -4.550077 102.339265 0.000001 -0.000002 -0.000000 2.759736 -6.582559 55.834109 4.789090 -4.655319 91.625014 -0.000000 -0.000000 -0.000003 0.000001 -0.000002 0.000000 0.000001 0.000000 -0.000001 -0.000000 0.000001 0.000000 0.000001 0.000000 0.000000 0.000001 0.000000 0.000000 0.000001 0.000000 -0.000001 -0.000000 0.000001 0.000000 0.000001 0.000000 0.000000 0.000001 0.000000 0.000000 0.000001 0.000000 -0.000001 -0.000000 0.000001 0.000000 0.000001 -0.000000 0.000000 0.000001 -0.000000 0.000000 0.000001 -0.000000 0.000000 
-1.641349 67.252434 11.971283 -8.099072 2.154637 4.038799 0.000001 0.000000 -0.000000 -20.285896 -9.321751 -16.958557 43.139068 10.908820 0.806170 -18.358649 -29.043839 -4.693318 0.000000 0.000001 0.000000 -0.000005 -0.000001 -0.000001 6.299965 -1.442518 -23.989590 52.373484 17.520258 1.156772 -5.817494 19.475231 -3.137790 -0.000001 -0.000001 -0.000000 0.000000 0.000000 -0.000001 -6.326022 36.904953 15.683047 0.487834 12.130375 2.361770 0.696771 11.814577 3.435520 2.379833 -7.681221 1.281215 -6.080100 -34.735368 -9.789272 -0.000000 0.000001 -0.000000 -0.000000 0.000001 -0.000000 -0.000000 0.000001 0.000000 -0.000000 0.000001 0.000000 -0.000000 0.000001 0.000001 -0.000000 0.000001 0.000000 -0.000000 0.000001 0.000001 -0.000000 0.000001 -0.000000 -0.000000 0.000001 -0.000000 1.189708 -19.254503 7.622693 -53.615148 -28.334410 -53.249784 -0.000003 -63.078689 0.000003 -23.639193 -56.833830 37.470278 -9.235379 -2.147963 9.232392 8.361301 10.198114 10.706123 0.000002 0.000001 0.000000 7.111137 8.625907 -76.996108 7.364097 5.652672 -105.011508 0.000002 0.000000 -0.000000 3.373433 8.413145 -94.393406 6.012489 5.848828 -91.583623 0.000007 -0.000000 0.000001 4.133563 8.907532 -105.431708 3.631126 5.414945 -67.668050 0.000001 0.000000 -0.000001 8.689854 7.507963 -118.302742 2.611846 4.875204 -56.338925 -0.000005 -0.000001 -0.000001 0.000001 0.000003 -0.000004 -7.496926 45.086495 1.901111 -42.545368 31.584092 26.387939 0.000033 78.906669 -0.000030 2.301323 6.380458 -16.888683 4.421773 -7.563040 -15.368414 -6.711064 -17.341480 -6.658236 -0.000004 -0.000001 0.000001 4.590321 -12.053715 27.506121 4.617862 -4.657002 89.516022 -0.000002 -0.000001 -0.000002 6.643555 -8.911273 58.518213 4.914939 -4.650028 93.176498 0.000006 -0.000001 -0.000003 0.610990 -5.168785 56.810146 5.651364 -4.550075 102.339265 0.000003 -0.000002 -0.000003 2.759734 -6.582556 55.834112 4.789085 -4.655322 91.625014 0.000001 0.000002 0.000002 -0.000002 -0.000001 0.000001 -0.000001 0.000001 0.000000 -0.000001 -0.000001 -0.000000 -0.000001 0.000001 0.000001 -0.000001 0.000001 0.000001 -0.000001 0.000001 0.000000 -0.000001 -0.000001 -0.000000 -0.000001 0.000001 0.000001 -0.000001 0.000001 0.000001 -0.000001 0.000001 0.000000 -0.000001 -0.000001 -0.000000 0.000001 0.000000 -0.000000 0.000001 0.000000 -0.000000 0.000001 0.000000 -0.000000 
